<?xml version="1.0" encoding="UTF-8" standalone="no"?>
<!DOCTYPE svg PUBLIC "-//W3C//DTD SVG 1.1//EN" "http://www.w3.org/Graphics/SVG/1.1/DTD/svg11.dtd">
<svg width="100%" height="100%" viewBox="0 0 910 905" version="1.1" xmlns="http://www.w3.org/2000/svg" xmlns:xlink="http://www.w3.org/1999/xlink" xml:space="preserve" xmlns:serif="http://www.serif.com/" style="fill-rule:evenodd;clip-rule:evenodd;stroke-linejoin:round;stroke-miterlimit:2;">
    <g transform="matrix(1,0,0,1,-2107.43,-117.782)">
        <g transform="matrix(2,0,0,2,1785.83,0)">
            <g transform="matrix(-29.0723,-23.0576,-23.0576,29.0723,268.418,157.233)">
                <path d="M0.98,-0.022C0.989,0.127 0.877,0.255 0.728,0.264C0.579,0.273 0.451,0.16 0.442,0.012C0.433,-0.137 0.546,-0.265 0.694,-0.274C0.763,-0.278 0.828,-0.256 0.879,-0.216C0.936,-0.17 0.975,-0.101 0.98,-0.022Z" style="fill:url(#_Linear1);fill-rule:nonzero;"/>
            </g>
        </g>
        <g transform="matrix(2,0,0,2,1785.83,0)">
            <g transform="matrix(14.3764,64.5119,64.5119,-14.3764,350.491,59.1195)">
                <path d="M0.004,0.003C0.002,-0.164 0.136,-0.301 0.304,-0.302C0.471,-0.304 0.607,-0.17 0.609,-0.003C0.611,0.164 0.477,0.301 0.31,0.303C0.164,0.304 0.042,0.203 0.011,0.066C0.007,0.046 0.004,0.025 0.004,0.003Z" style="fill:url(#_Linear2);fill-rule:nonzero;"/>
            </g>
        </g>
        <g transform="matrix(2,0,0,2,1785.83,0)">
            <g transform="matrix(-25.5635,20.0503,20.0503,25.5635,242.947,359.076)">
                <path d="M0.727,-0.305C0.896,-0.329 1.052,-0.212 1.075,-0.043C1.1,0.125 0.983,0.281 0.814,0.305C0.646,0.329 0.49,0.212 0.466,0.043C0.45,-0.069 0.497,-0.177 0.581,-0.242C0.622,-0.275 0.672,-0.297 0.727,-0.305Z" style="fill:url(#_Linear3);fill-rule:nonzero;"/>
            </g>
        </g>
        <g transform="matrix(2,0,0,2,1785.83,0)">
            <g transform="matrix(84.9011,10.164,10.164,-84.9011,177.131,251.176)">
                <path d="M0.007,-0.003C0.008,-0.133 0.115,-0.236 0.244,-0.234C0.373,-0.232 0.476,-0.126 0.474,0.003C0.473,0.133 0.366,0.236 0.237,0.234C0.229,0.234 0.22,0.233 0.212,0.232C0.095,0.218 0.005,0.117 0.007,-0.003Z" style="fill:url(#_Linear4);fill-rule:nonzero;"/>
            </g>
        </g>
        <g transform="matrix(2,0,0,2,1785.83,0)">
            <g transform="matrix(7.51976,34.0863,34.0863,-7.51976,432.53,445.305)">
                <path d="M0.444,0.002C0.443,-0.156 0.57,-0.285 0.728,-0.286C0.886,-0.288 1.016,-0.16 1.017,-0.002C1.018,0.156 0.891,0.285 0.733,0.287C0.595,0.288 0.479,0.192 0.451,0.062C0.446,0.043 0.444,0.023 0.444,0.002Z" style="fill:url(#_Linear5);fill-rule:nonzero;"/>
            </g>
        </g>
        <g transform="matrix(2,0,0,2,1785.83,0)">
            <g transform="matrix(32.262,-68.4601,-68.4601,-32.262,306.9,474.823)">
                <path d="M0.25,0.265C0.104,0.262 -0.011,0.141 -0.008,-0.005C-0.005,-0.151 0.116,-0.266 0.262,-0.263C0.407,-0.26 0.523,-0.139 0.52,0.007C0.519,0.045 0.51,0.081 0.495,0.113C0.452,0.205 0.358,0.267 0.25,0.265Z" style="fill:url(#_Linear6);fill-rule:nonzero;"/>
            </g>
        </g>
        <g transform="matrix(2,0,0,2,1785.83,0)">
            <g transform="matrix(33.083,2.00488,2.00488,-33.083,572.135,294.311)">
                <path d="M0.401,0.02C0.394,-0.146 0.523,-0.287 0.689,-0.295C0.856,-0.302 0.997,-0.173 1.004,-0.006C1.011,0.16 0.882,0.301 0.716,0.308C0.705,0.309 0.694,0.309 0.684,0.308C0.532,0.299 0.408,0.176 0.401,0.02Z" style="fill:url(#_Linear7);fill-rule:nonzero;"/>
            </g>
        </g>
        <g transform="matrix(2,0,0,2,1785.83,0)">
            <g transform="matrix(-56.9504,-50.8218,-50.8218,56.9504,561.782,423.331)">
                <path d="M0.555,-0.002C0.556,0.143 0.439,0.261 0.294,0.262C0.15,0.262 0.032,0.145 0.031,0.001C0.03,-0.144 0.147,-0.262 0.292,-0.262C0.359,-0.263 0.421,-0.238 0.468,-0.196C0.521,-0.148 0.555,-0.079 0.555,-0.002Z" style="fill:url(#_Linear8);fill-rule:nonzero;"/>
            </g>
        </g>
        <g transform="matrix(2,0,0,2,1785.83,0)">
            <g transform="matrix(15.0382,-37.0932,-37.0932,-15.0382,466.458,119.975)">
                <path d="M0.767,0.25C0.629,0.254 0.513,0.146 0.509,0.008C0.504,-0.129 0.612,-0.245 0.75,-0.25C0.888,-0.254 1.003,-0.146 1.008,-0.008C1.009,0.028 1.003,0.062 0.99,0.094C0.954,0.183 0.869,0.246 0.767,0.25Z" style="fill:url(#_Linear9);fill-rule:nonzero;"/>
            </g>
        </g>
        <g transform="matrix(2,0,0,2,1785.83,0)">
            <g transform="matrix(-60.0507,34.9854,34.9854,60.0507,586.862,164.57)">
                <path d="M0.284,-0.288C0.443,-0.288 0.573,-0.16 0.573,-0.001C0.574,0.158 0.446,0.287 0.287,0.288C0.128,0.288 -0.002,0.16 -0.002,0.001C-0.003,-0.105 0.055,-0.199 0.141,-0.249C0.183,-0.273 0.232,-0.288 0.284,-0.288Z" style="fill:url(#_Linear10);fill-rule:nonzero;"/>
            </g>
        </g>
        <g transform="matrix(2,0,0,2,1785.83,0)">
            <g transform="matrix(154.999,89,89,-154.999,206.741,165.245)">
                <g>
                    <path d="M0.89,0.111C0.951,0.111 1.001,0.061 1.001,-0.001C1.001,-0.063 0.951,-0.113 0.889,-0.113L0.106,-0.111C0.044,-0.111 -0.006,-0.061 -0.006,0.001C-0.006,0.063 0.044,0.113 0.106,0.113L0.89,0.111Z" style="fill:url(#_Linear11);fill-rule:nonzero;"/>
                </g>
            </g>
        </g>
        <g transform="matrix(2,0,0,2,1785.83,0)">
            <g transform="matrix(132.002,-119.001,-119.001,-132.002,233.686,421.239)">
                <g>
                    <path d="M0.895,0.112C0.957,0.112 1.008,0.062 1.008,-0C1.007,-0.062 0.957,-0.113 0.895,-0.113L0.107,-0.112C0.045,-0.112 -0.005,-0.062 -0.005,0C-0.005,0.062 0.045,0.113 0.107,0.113L0.895,0.112Z" style="fill:url(#_Linear12);fill-rule:nonzero;"/>
                </g>
            </g>
        </g>
        <g transform="matrix(2,0,0,2,1785.83,0)">
            <g transform="matrix(-73.9995,-168,-168,73.9995,486.193,477.008)">
                <g>
                    <path d="M0.878,0.11C0.939,0.111 0.988,0.062 0.988,0.002C0.988,-0.058 0.939,-0.107 0.879,-0.107L0.117,-0.11C0.056,-0.111 0.007,-0.062 0.007,-0.002C0.007,0.058 0.056,0.107 0.116,0.107L0.878,0.11Z" style="fill:url(#_Linear13);fill-rule:nonzero;"/>
                </g>
            </g>
        </g>
        <g transform="matrix(2,0,0,2,1785.83,0)">
            <g transform="matrix(-178.997,17.0009,17.0009,178.997,615.2,252.539)">
                <g>
                    <path d="M0.887,0.115C0.949,0.116 0.999,0.066 1,0.005C1,-0.056 0.951,-0.107 0.889,-0.107L0.111,-0.115C0.049,-0.116 -0.001,-0.066 -0.001,-0.005C-0.002,0.056 0.047,0.107 0.109,0.107L0.887,0.115Z" style="fill:url(#_Linear14);fill-rule:nonzero;"/>
                </g>
            </g>
        </g>
        <g transform="matrix(2,0,0,2,1785.83,0)">
            <g transform="matrix(-38.0009,174,174,38.0009,442.778,59.4482)">
                <g>
                    <path d="M0.898,0.114C0.96,0.115 1.01,0.065 1.011,0.003C1.011,-0.059 0.961,-0.11 0.899,-0.11L0.113,-0.114C0.051,-0.115 0,-0.065 0,-0.003C-0,0.059 0.05,0.11 0.112,0.11L0.898,0.114Z" style="fill:url(#_Linear15);fill-rule:nonzero;"/>
                </g>
            </g>
        </g>
        <g transform="matrix(2,0,0,2,1785.83,0)">
            <g transform="matrix(93.498,129.499,129.499,-93.498,284.571,63.5849)">
                <g>
                    <path d="M0.939,0.064C0.973,0.064 1.002,0.036 1.002,0.002C1.002,-0.033 0.974,-0.061 0.939,-0.061L0.063,-0.064C0.028,-0.064 0,-0.036 0,-0.001C-0,0.033 0.028,0.061 0.062,0.061L0.939,0.064Z" style="fill:url(#_Linear16);fill-rule:nonzero;"/>
                </g>
            </g>
        </g>
        <g transform="matrix(2,0,0,2,1785.83,0)">
            <g transform="matrix(1.03415,121.765,121.765,-1.03415,396.303,93.579)">
                <g>
                    <path d="M0.913,0.079C0.958,0.078 0.994,0.041 0.994,-0.004C0.994,-0.05 0.956,-0.086 0.911,-0.086L0.09,-0.079C0.045,-0.078 0.008,-0.041 0.009,0.004C0.009,0.05 0.046,0.086 0.091,0.086L0.913,0.079Z" style="fill:url(#_Linear17);fill-rule:nonzero;"/>
                </g>
            </g>
        </g>
        <g transform="matrix(2,0,0,2,1785.83,0)">
            <g transform="matrix(151.498,-49.4992,-49.4992,-151.498,161.34,316.172)">
                <g>
                    <path d="M0.941,0.062C0.976,0.062 1.004,0.034 1.004,-0.001C1.004,-0.035 0.976,-0.063 0.941,-0.063L0.063,-0.062C0.028,-0.062 -0,-0.034 -0,0.001C0,0.036 0.028,0.064 0.063,0.063L0.941,0.062Z" style="fill:url(#_Linear18);fill-rule:nonzero;"/>
                </g>
            </g>
        </g>
        <g transform="matrix(2,0,0,2,1785.83,0)">
            <g transform="matrix(109.503,36.7509,36.7509,-109.503,227.267,218.659)">
                <g>
                    <path d="M0.936,0.091C0.984,0.091 1.023,0.053 1.024,0.005C1.024,-0.043 0.986,-0.082 0.938,-0.082L0.072,-0.091C0.024,-0.091 -0.015,-0.053 -0.015,-0.005C-0.016,0.043 0.023,0.082 0.071,0.082L0.936,0.091Z" style="fill:url(#_Linear19);fill-rule:nonzero;"/>
                </g>
            </g>
        </g>
        <g transform="matrix(2,0,0,2,1785.83,0)">
            <g transform="matrix(-1.50009,-160.498,-160.498,1.50009,363.979,511.068)">
                <g>
                    <path d="M0.935,0.058C0.969,0.058 0.997,0.03 0.997,-0.005C0.996,-0.039 0.968,-0.067 0.934,-0.066L0.062,-0.058C0.027,-0.058 -0,-0.03 0,0.005C0,0.039 0.028,0.067 0.063,0.066L0.935,0.058Z" style="fill:url(#_Linear20);fill-rule:nonzero;"/>
                </g>
            </g>
        </g>
        <g transform="matrix(2,0,0,2,1785.83,0)">
            <g transform="matrix(67.5013,-98.2517,-98.2517,-67.5013,291.976,420.524)">
                <g>
                    <path d="M0.921,0.073C0.967,0.072 1.004,0.033 1.003,-0.013C1.001,-0.06 0.963,-0.096 0.917,-0.095L0.078,-0.073C0.032,-0.072 -0.005,-0.033 -0.004,0.013C-0.003,0.06 0.036,0.096 0.082,0.095L0.921,0.073Z" style="fill:url(#_Linear21);fill-rule:nonzero;"/>
                </g>
            </g>
        </g>
        <g transform="matrix(2,0,0,2,1785.83,0)">
            <g transform="matrix(-150.002,-47.0017,-47.0017,150.002,610.032,378.069)">
                <g>
                    <path d="M0.946,0.059C0.981,0.059 1.009,0.03 1.009,-0.005C1.008,-0.04 0.98,-0.069 0.945,-0.068L0.054,-0.059C0.019,-0.059 -0.009,-0.03 -0.009,0.005C-0.009,0.04 0.02,0.069 0.055,0.068L0.946,0.059Z" style="fill:url(#_Linear22);fill-rule:nonzero;"/>
                </g>
            </g>
        </g>
        <g transform="matrix(2,0,0,2,1785.83,0)">
            <g transform="matrix(-72.0013,-97.5019,-97.5019,72.0013,504.28,422.702)">
                <g>
                    <path d="M0.935,0.079C0.98,0.079 1.017,0.042 1.017,-0.004C1.016,-0.049 0.979,-0.086 0.933,-0.086L0.108,-0.079C0.063,-0.079 0.026,-0.042 0.026,0.004C0.027,0.049 0.064,0.086 0.11,0.086L0.935,0.079Z" style="fill:url(#_Linear23);fill-rule:nonzero;"/>
                </g>
            </g>
        </g>
        <g transform="matrix(2,0,0,2,1785.83,0)">
            <g transform="matrix(-94.4975,130.497,130.497,94.4975,562.647,102.235)">
                <g>
                    <path d="M0.935,0.061C0.969,0.061 0.997,0.033 0.997,-0.001C0.997,-0.035 0.969,-0.063 0.935,-0.063L0.066,-0.061C0.032,-0.061 0.004,-0.033 0.004,0.001C0.004,0.035 0.032,0.063 0.066,0.063L0.935,0.061Z" style="fill:url(#_Linear24);fill-rule:nonzero;"/>
                </g>
            </g>
        </g>
        <g transform="matrix(2,0,0,2,1785.83,0)">
            <g transform="matrix(-115.499,32.9996,32.9996,115.499,568.858,221.214)">
                <g>
                    <path d="M0.917,0.098C0.963,0.1 1.001,0.064 1.003,0.018C1.004,-0.028 0.969,-0.067 0.923,-0.068L0.091,-0.098C0.045,-0.1 0.006,-0.064 0.004,-0.018C0.003,0.028 0.039,0.067 0.085,0.068L0.917,0.098Z" style="fill:url(#_Linear25);fill-rule:nonzero;"/>
                </g>
            </g>
        </g>
        <g transform="matrix(2,0,0,2,1785.83,0)">
            <g transform="matrix(-117.053,-109.055,-109.055,117.053,409.028,262.527)">
                <g>
                    <path d="M0.091,-0.101L0.147,-0.1C0.18,-0.085 0.215,-0.085 0.246,-0.098L0.903,-0.087C0.955,-0.086 0.996,-0.043 0.995,0.009C0.995,0.06 0.952,0.102 0.9,0.101L0.5,0.094L0.4,0.071C0.364,0.063 0.328,0.071 0.3,0.09L0.088,0.087C0.036,0.086 -0.005,0.043 -0.004,-0.008C-0.004,-0.06 0.039,-0.102 0.091,-0.101Z" style="fill:url(#_Linear26);fill-rule:nonzero;"/>
                </g>
            </g>
        </g>
        <g transform="matrix(2,0,0,2,1785.83,0)">
            <g transform="matrix(-134.487,76.3306,76.3306,134.487,385.283,260.13)">
                <g>
                    <path d="M-0.029,-0.004C-0.028,-0.057 0.015,-0.1 0.069,-0.1L0.127,-0.1C0.161,-0.085 0.198,-0.085 0.23,-0.099L0.91,-0.094C0.963,-0.094 1.006,-0.05 1.006,0.004C1.005,0.057 0.962,0.1 0.908,0.1L0.494,0.097L0.39,0.074C0.353,0.066 0.316,0.075 0.287,0.096L0.068,0.094C0.014,0.094 -0.029,0.05 -0.029,-0.004Z" style="fill:url(#_Linear27);fill-rule:nonzero;"/>
                </g>
            </g>
        </g>
        <g transform="matrix(2,0,0,2,1785.83,0)">
            <g transform="matrix(29.8052,151.207,151.207,-29.8052,379.801,280.546)">
                <g>
                    <path d="M0.495,0.097L0.392,0.074C0.355,0.065 0.317,0.074 0.288,0.094L0.068,0.091C0.014,0.09 -0.029,0.046 -0.028,-0.008C-0.027,-0.061 0.017,-0.104 0.071,-0.104L0.129,-0.103C0.163,-0.087 0.2,-0.088 0.233,-0.101L0.914,-0.091C0.968,-0.09 1.011,-0.046 1.01,0.008C1.009,0.061 0.965,0.104 0.911,0.104L0.495,0.097Z" style="fill:url(#_Linear28);fill-rule:nonzero;"/>
                </g>
            </g>
        </g>
        <g transform="matrix(2,0,0,2,1785.83,0)">
            <g transform="matrix(156.294,17.4472,17.4472,-156.294,394.494,292.68)">
                <g>
                    <path d="M0.91,0.098L0.502,0.095L0.4,0.073C0.364,0.065 0.327,0.074 0.299,0.094L0.083,0.093C0.03,0.092 -0.012,0.049 -0.012,-0.003C-0.011,-0.056 0.032,-0.098 0.084,-0.098L0.141,-0.098C0.174,-0.083 0.211,-0.084 0.243,-0.097L0.911,-0.093C0.963,-0.092 1.006,-0.049 1.006,0.003C1.005,0.056 0.962,0.098 0.91,0.098Z" style="fill:url(#_Linear29);fill-rule:nonzero;"/>
                </g>
            </g>
        </g>
        <g transform="matrix(2,0,0,2,1785.83,0)">
            <g transform="matrix(66.1528,-145.391,-145.391,-66.1528,412.701,282.62)">
                <g>
                    <path d="M0.994,0.004C0.994,0.056 0.951,0.098 0.899,0.097L0.498,0.094L0.398,0.072C0.362,0.064 0.326,0.072 0.298,0.092L0.085,0.091C0.034,0.09 -0.008,0.048 -0.008,-0.004C-0.007,-0.056 0.035,-0.098 0.087,-0.097L0.143,-0.097C0.176,-0.082 0.212,-0.083 0.243,-0.096L0.901,-0.091C0.953,-0.09 0.994,-0.048 0.994,0.004Z" style="fill:url(#_Linear30);fill-rule:nonzero;"/>
                </g>
            </g>
        </g>
    </g>
    <defs>
        <linearGradient id="_Linear1" x1="0" y1="0" x2="1" y2="0" gradientUnits="userSpaceOnUse" gradientTransform="matrix(1,5.55112e-17,5.55112e-17,-1,0,-0.00492259)"><stop offset="0" style="stop-color:rgb(0,167,109);stop-opacity:1"/><stop offset="1" style="stop-color:rgb(82,79,161);stop-opacity:1"/></linearGradient>
        <linearGradient id="_Linear2" x1="0" y1="0" x2="1" y2="0" gradientUnits="userSpaceOnUse" gradientTransform="matrix(1,0,0,-1,0,0.000230759)"><stop offset="0" style="stop-color:rgb(0,172,205);stop-opacity:1"/><stop offset="1" style="stop-color:rgb(163,35,142);stop-opacity:1"/></linearGradient>
        <linearGradient id="_Linear3" x1="0" y1="0" x2="1" y2="0" gradientUnits="userSpaceOnUse" gradientTransform="matrix(1,5.55112e-17,5.55112e-17,-1,0,3.07781e-05)"><stop offset="0" style="stop-color:rgb(255,242,0);stop-opacity:1"/><stop offset="1" style="stop-color:rgb(0,172,205);stop-opacity:1"/></linearGradient>
        <linearGradient id="_Linear4" x1="0" y1="0" x2="1" y2="0" gradientUnits="userSpaceOnUse" gradientTransform="matrix(1,0,0,-1,0,4.48321e-06)"><stop offset="0" style="stop-color:rgb(113,191,68);stop-opacity:1"/><stop offset="1" style="stop-color:rgb(0,125,197);stop-opacity:1"/></linearGradient>
        <linearGradient id="_Linear5" x1="0" y1="0" x2="1" y2="0" gradientUnits="userSpaceOnUse" gradientTransform="matrix(1,0,0,-1,0,0.000199184)"><stop offset="0" style="stop-color:rgb(237,25,58);stop-opacity:1"/><stop offset="1" style="stop-color:rgb(113,191,68);stop-opacity:1"/></linearGradient>
        <linearGradient id="_Linear6" x1="0" y1="0" x2="1" y2="0" gradientUnits="userSpaceOnUse" gradientTransform="matrix(1,5.55112e-17,5.55112e-17,-1,0,0.000874086)"><stop offset="0" style="stop-color:rgb(245,130,31);stop-opacity:1"/><stop offset="1" style="stop-color:rgb(0,167,109);stop-opacity:1"/></linearGradient>
        <linearGradient id="_Linear7" x1="0" y1="0" x2="1" y2="0" gradientUnits="userSpaceOnUse" gradientTransform="matrix(1,-6.93889e-18,-6.93889e-18,-1,0,0.00686046)"><stop offset="0" style="stop-color:rgb(163,35,142);stop-opacity:1"/><stop offset="1" style="stop-color:rgb(245,130,31);stop-opacity:1"/></linearGradient>
        <linearGradient id="_Linear8" x1="0" y1="0" x2="1" y2="0" gradientUnits="userSpaceOnUse" gradientTransform="matrix(1,-5.55112e-17,-5.55112e-17,-1,0,-0.000419328)"><stop offset="0" style="stop-color:rgb(237,5,119);stop-opacity:1"/><stop offset="1" style="stop-color:rgb(255,242,0);stop-opacity:1"/></linearGradient>
        <linearGradient id="_Linear9" x1="0" y1="0" x2="1" y2="0" gradientUnits="userSpaceOnUse" gradientTransform="matrix(1,0,0,-1,0,0.000126298)"><stop offset="0" style="stop-color:rgb(0,125,197);stop-opacity:1"/><stop offset="1" style="stop-color:rgb(237,5,119);stop-opacity:1"/></linearGradient>
        <linearGradient id="_Linear10" x1="0" y1="0" x2="1" y2="0" gradientUnits="userSpaceOnUse" gradientTransform="matrix(1,0,0,-1,0,1.52286e-05)"><stop offset="0" style="stop-color:rgb(82,79,161);stop-opacity:1"/><stop offset="1" style="stop-color:rgb(237,25,58);stop-opacity:1"/></linearGradient>
        <linearGradient id="_Linear11" x1="0" y1="0" x2="1" y2="0" gradientUnits="userSpaceOnUse" gradientTransform="matrix(1,0,0,-1,0,1.07891e-05)"><stop offset="0" style="stop-color:rgb(0,167,109);stop-opacity:1"/><stop offset="1" style="stop-color:rgb(82,79,161);stop-opacity:1"/></linearGradient>
        <linearGradient id="_Linear12" x1="0" y1="0" x2="1" y2="0" gradientUnits="userSpaceOnUse" gradientTransform="matrix(1,0,0,-1,0,4.33758e-05)"><stop offset="0" style="stop-color:rgb(255,242,0);stop-opacity:1"/><stop offset="1" style="stop-color:rgb(0,172,205);stop-opacity:1"/></linearGradient>
        <linearGradient id="_Linear13" x1="0" y1="0" x2="1" y2="0" gradientUnits="userSpaceOnUse" gradientTransform="matrix(1,5.55112e-17,5.55112e-17,-1,0,-2.86339e-05)"><stop offset="0" style="stop-color:rgb(237,25,58);stop-opacity:1"/><stop offset="1" style="stop-color:rgb(113,191,68);stop-opacity:1"/></linearGradient>
        <linearGradient id="_Linear14" x1="0" y1="0" x2="1" y2="0" gradientUnits="userSpaceOnUse" gradientTransform="matrix(1,0,0,-1,0,-4.37949e-06)"><stop offset="0" style="stop-color:rgb(163,35,142);stop-opacity:1"/><stop offset="1" style="stop-color:rgb(245,130,31);stop-opacity:1"/></linearGradient>
        <linearGradient id="_Linear15" x1="0" y1="0" x2="1" y2="0" gradientUnits="userSpaceOnUse" gradientTransform="matrix(1,2.77556e-17,2.77556e-17,-1,0,6.34677e-07)"><stop offset="0" style="stop-color:rgb(0,125,197);stop-opacity:1"/><stop offset="1" style="stop-color:rgb(237,5,119);stop-opacity:1"/></linearGradient>
        <linearGradient id="_Linear16" x1="0" y1="0" x2="1" y2="0" gradientUnits="userSpaceOnUse" gradientTransform="matrix(1,0,0,-1,0,3.06968e-05)"><stop offset="0" style="stop-color:rgb(0,172,205);stop-opacity:1"/><stop offset="1" style="stop-color:rgb(163,35,142);stop-opacity:1"/></linearGradient>
        <linearGradient id="_Linear17" x1="0" y1="0" x2="1" y2="0" gradientUnits="userSpaceOnUse" gradientTransform="matrix(1,0,0,-1,0,-1.4445e-05)"><stop offset="0" style="stop-color:rgb(163,35,142);stop-opacity:1"/><stop offset="1" style="stop-color:rgb(245,130,31);stop-opacity:1"/></linearGradient>
        <linearGradient id="_Linear18" x1="0" y1="0" x2="1" y2="0" gradientUnits="userSpaceOnUse" gradientTransform="matrix(1,0,0,-1,0,3.37634e-05)"><stop offset="0" style="stop-color:rgb(113,191,68);stop-opacity:1"/><stop offset="1" style="stop-color:rgb(0,125,197);stop-opacity:1"/></linearGradient>
        <linearGradient id="_Linear19" x1="0" y1="0" x2="1" y2="0" gradientUnits="userSpaceOnUse" gradientTransform="matrix(1,5.55112e-17,5.55112e-17,-1,0,-5.39637e-06)"><stop offset="0" style="stop-color:rgb(0,125,197);stop-opacity:1"/><stop offset="1" style="stop-color:rgb(237,5,119);stop-opacity:1"/></linearGradient>
        <linearGradient id="_Linear20" x1="0" y1="0" x2="1" y2="0" gradientUnits="userSpaceOnUse" gradientTransform="matrix(1,0,0,-1,0,1.53832e-06)"><stop offset="0" style="stop-color:rgb(245,130,31);stop-opacity:1"/><stop offset="1" style="stop-color:rgb(0,167,109);stop-opacity:1"/></linearGradient>
        <linearGradient id="_Linear21" x1="0" y1="0" x2="1" y2="0" gradientUnits="userSpaceOnUse" gradientTransform="matrix(1,0,0,-1,0,9.1056e-07)"><stop offset="0" style="stop-color:rgb(0,167,109);stop-opacity:1"/><stop offset="1" style="stop-color:rgb(82,79,161);stop-opacity:1"/></linearGradient>
        <linearGradient id="_Linear22" x1="0" y1="0" x2="1" y2="0" gradientUnits="userSpaceOnUse" gradientTransform="matrix(1,0,0,-1,0,2.52997e-06)"><stop offset="0" style="stop-color:rgb(237,5,119);stop-opacity:1"/><stop offset="1" style="stop-color:rgb(255,242,0);stop-opacity:1"/></linearGradient>
        <linearGradient id="_Linear23" x1="0" y1="0" x2="1" y2="0" gradientUnits="userSpaceOnUse" gradientTransform="matrix(1,5.55112e-17,5.55112e-17,-1,0,-5.98605e-06)"><stop offset="0" style="stop-color:rgb(255,242,0);stop-opacity:1"/><stop offset="1" style="stop-color:rgb(0,172,205);stop-opacity:1"/></linearGradient>
        <linearGradient id="_Linear24" x1="0" y1="0" x2="1" y2="0" gradientUnits="userSpaceOnUse" gradientTransform="matrix(1,0,0,-1,0,2.75481e-06)"><stop offset="0" style="stop-color:rgb(82,79,161);stop-opacity:1"/><stop offset="1" style="stop-color:rgb(237,25,58);stop-opacity:1"/></linearGradient>
        <linearGradient id="_Linear25" x1="0" y1="0" x2="1" y2="0" gradientUnits="userSpaceOnUse" gradientTransform="matrix(1,0,0,-1,0,1.55299e-05)"><stop offset="0" style="stop-color:rgb(237,25,58);stop-opacity:1"/><stop offset="1" style="stop-color:rgb(113,191,68);stop-opacity:1"/></linearGradient>
        <linearGradient id="_Linear26" x1="0" y1="0" x2="1" y2="0" gradientUnits="userSpaceOnUse" gradientTransform="matrix(1,0,0,-1,0,1.0658e-05)"><stop offset="0" style="stop-color:rgb(113,191,68);stop-opacity:1"/><stop offset="1" style="stop-color:rgb(0,125,197);stop-opacity:1"/></linearGradient>
        <linearGradient id="_Linear27" x1="0" y1="0" x2="1" y2="0" gradientUnits="userSpaceOnUse" gradientTransform="matrix(1,5.55112e-17,5.55112e-17,-1,0,1.56846e-07)"><stop offset="0" style="stop-color:rgb(245,130,31);stop-opacity:1"/><stop offset="1" style="stop-color:rgb(0,167,109);stop-opacity:1"/></linearGradient>
        <linearGradient id="_Linear28" x1="0" y1="0" x2="1" y2="0" gradientUnits="userSpaceOnUse" gradientTransform="matrix(1,0,0,-1,0,-1.12792e-05)"><stop offset="0" style="stop-color:rgb(237,5,119);stop-opacity:1"/><stop offset="1" style="stop-color:rgb(255,242,0);stop-opacity:1"/></linearGradient>
        <linearGradient id="_Linear29" x1="0" y1="0" x2="1" y2="0" gradientUnits="userSpaceOnUse" gradientTransform="matrix(1,0,0,-1,0,-1.507e-05)"><stop offset="0" style="stop-color:rgb(82,79,161);stop-opacity:1"/><stop offset="1" style="stop-color:rgb(237,25,58);stop-opacity:1"/></linearGradient>
        <linearGradient id="_Linear30" x1="0" y1="0" x2="1" y2="0" gradientUnits="userSpaceOnUse" gradientTransform="matrix(1,0,0,-1,0,6.28787e-06)"><stop offset="0" style="stop-color:rgb(0,172,205);stop-opacity:1"/><stop offset="1" style="stop-color:rgb(163,35,142);stop-opacity:1"/></linearGradient>
    </defs>
</svg>
